# xmcd
#
# Track frame offsets:
#	150
#	25876
#	61575
#	85382
#	105925
#	125515
#
# Disc length: 1888 seconds
#
# Revision: 0
# Processed by: cddbd v1.5PL3 Copyright (c) Steve Scherf et al.
# Submitted via: MusicManager 7.0.3.0 
#
DISCID=3f075e06
DTITLE=Amands Marshall - Live
DYEAR=1900
DGENRE=rock
TTITLE0=Beautiful Goodbye
TTITLE1=Birmingham
TTITLE2=Last Exit To Eden
TTITLE3=Let It Rain
TTITLE4=Sitting On Top Of The World
TTITLE5=Don't Let It Bring You Down
EXTD=
EXTT0=
EXTT1=
EXTT2=
EXTT3=
EXTT4=
EXTT5=
PLAYORDER=
